<!-- myOutput.svg -->
<!-- Generated using p5.js v.2.3.0 and p5.plotSvg v.0.3.0: -->
<!-- A Plotter-Oriented SVG Exporter for p5.js -->
<!-- Wed Oct 07 2026 01:22:20 GMT-0400 (Eastern Daylight Time) -->
<!-- DPI: 96 -->
<svg xmlns="http://www.w3.org/2000/svg" version="1.1" width="8.5in" height="11in" viewBox="0 0 816 1056">
  <style>
      circle, ellipse, line, path, polygon, polyline, rect, quad, text {
        fill: none;
        stroke: black;
        stroke-width: 1;
        stroke-linecap: round;
        stroke-linejoin: round;
        vector-effect: non-scaling-stroke;
      }
    </style>
<line x1="0" y1="0" x2="816" y2="0" style="stroke:#c6ff24;"/>
<line x1="0" y1="5" x2="816" y2="5" style="stroke:#c6ff24;"/>
<line x1="0" y1="10" x2="816" y2="10" style="stroke:#c6ff24;"/>
<line x1="0" y1="15" x2="816" y2="15" style="stroke:#c6ff24;"/>
<line x1="0" y1="20" x2="816" y2="20" style="stroke:#c6ff24;"/>
<line x1="0" y1="25" x2="816" y2="25" style="stroke:#c6ff24;"/>
<line x1="0" y1="30" x2="816" y2="30" style="stroke:#c6ff24;"/>
<line x1="0" y1="35" x2="816" y2="35" style="stroke:#c6ff24;"/>
<line x1="0" y1="40" x2="816" y2="40" style="stroke:#c6ff24;"/>
<line x1="0" y1="45" x2="816" y2="45" style="stroke:#c6ff24;"/>
<line x1="0" y1="50" x2="816" y2="50" style="stroke:#c6ff24;"/>
<line x1="0" y1="55" x2="816" y2="55" style="stroke:#c6ff24;"/>
<line x1="0" y1="60" x2="816" y2="60" style="stroke:#c6ff24;"/>
<line x1="0" y1="65" x2="816" y2="65" style="stroke:#c6ff24;"/>
<line x1="0" y1="70" x2="816" y2="70" style="stroke:#c6ff24;"/>
<line x1="0" y1="75" x2="816" y2="75" style="stroke:#c6ff24;"/>
<line x1="0" y1="80" x2="816" y2="80" style="stroke:#c6ff24;"/>
<line x1="0" y1="85" x2="816" y2="85" style="stroke:#c6ff24;"/>
<line x1="0" y1="90" x2="816" y2="90" style="stroke:#c6ff24;"/>
<line x1="0" y1="95" x2="816" y2="95" style="stroke:#c6ff24;"/>
<line x1="0" y1="100" x2="816" y2="100" style="stroke:#c6ff24;"/>
<line x1="0" y1="105" x2="816" y2="105" style="stroke:#c6ff24;"/>
<line x1="0" y1="110" x2="816" y2="110" style="stroke:#c6ff24;"/>
<line x1="0" y1="115" x2="816" y2="115" style="stroke:#c6ff24;"/>
<line x1="0" y1="120" x2="816" y2="120" style="stroke:#c6ff24;"/>
<line x1="0" y1="125" x2="816" y2="125" style="stroke:#c6ff24;"/>
<line x1="0" y1="130" x2="816" y2="130" style="stroke:#c6ff24;"/>
<line x1="0" y1="135" x2="816" y2="135" style="stroke:#c6ff24;"/>
<line x1="0" y1="140" x2="816" y2="140" style="stroke:#c6ff24;"/>
<line x1="0" y1="145" x2="816" y2="145" style="stroke:#c6ff24;"/>
<line x1="0" y1="150" x2="816" y2="150" style="stroke:#c6ff24;"/>
<line x1="0" y1="155" x2="816" y2="155" style="stroke:#c6ff24;"/>
<line x1="0" y1="160" x2="816" y2="160" style="stroke:#c6ff24;"/>
<line x1="0" y1="165" x2="816" y2="165" style="stroke:#c6ff24;"/>
<line x1="0" y1="170" x2="816" y2="170" style="stroke:#c6ff24;"/>
<line x1="0" y1="175" x2="816" y2="175" style="stroke:#c6ff24;"/>
<line x1="0" y1="180" x2="816" y2="180" style="stroke:#c6ff24;"/>
<line x1="0" y1="185" x2="816" y2="185" style="stroke:#c6ff24;"/>
<line x1="0" y1="190" x2="816" y2="190" style="stroke:#c6ff24;"/>
<line x1="0" y1="195" x2="816" y2="195" style="stroke:#c6ff24;"/>
<line x1="0" y1="200" x2="816" y2="200" style="stroke:#c6ff24;"/>
<line x1="0" y1="205" x2="816" y2="205" style="stroke:#c6ff24;"/>
<line x1="0" y1="210" x2="816" y2="210" style="stroke:#c6ff24;"/>
<line x1="0" y1="215" x2="816" y2="215" style="stroke:#c6ff24;"/>
<line x1="0" y1="220" x2="816" y2="220" style="stroke:#c6ff24;"/>
<line x1="0" y1="225" x2="816" y2="225" style="stroke:#c6ff24;"/>
<line x1="0" y1="230" x2="816" y2="230" style="stroke:#c6ff24;"/>
<line x1="0" y1="235" x2="816" y2="235" style="stroke:#c6ff24;"/>
<line x1="0" y1="240" x2="816" y2="240" style="stroke:#c6ff24;"/>
<line x1="0" y1="245" x2="816" y2="245" style="stroke:#c6ff24;"/>
<line x1="0" y1="250" x2="816" y2="250" style="stroke:#c6ff24;"/>
<line x1="0" y1="255" x2="816" y2="255" style="stroke:#c6ff24;"/>
<line x1="0" y1="260" x2="816" y2="260" style="stroke:#c6ff24;"/>
<line x1="0" y1="265" x2="816" y2="265" style="stroke:#c6ff24;"/>
<line x1="0" y1="270" x2="816" y2="270" style="stroke:#c6ff24;"/>
<line x1="0" y1="275" x2="816" y2="275" style="stroke:#c6ff24;"/>
<line x1="0" y1="280" x2="816" y2="280" style="stroke:#c6ff24;"/>
<line x1="0" y1="285" x2="816" y2="285" style="stroke:#c6ff24;"/>
<line x1="0" y1="290" x2="816" y2="290" style="stroke:#c6ff24;"/>
<line x1="0" y1="295" x2="816" y2="295" style="stroke:#c6ff24;"/>
<line x1="0" y1="300" x2="816" y2="300" style="stroke:#c6ff24;"/>
<line x1="0" y1="305" x2="816" y2="305" style="stroke:#c6ff24;"/>
<line x1="0" y1="310" x2="816" y2="310" style="stroke:#c6ff24;"/>
<line x1="0" y1="315" x2="816" y2="315" style="stroke:#c6ff24;"/>
<line x1="0" y1="320" x2="816" y2="320" style="stroke:#c6ff24;"/>
<line x1="0" y1="325" x2="816" y2="325" style="stroke:#c6ff24;"/>
<line x1="0" y1="330" x2="816" y2="330" style="stroke:#c6ff24;"/>
<line x1="0" y1="335" x2="816" y2="335" style="stroke:#c6ff24;"/>
<line x1="0" y1="340" x2="816" y2="340" style="stroke:#c6ff24;"/>
<line x1="0" y1="345" x2="816" y2="345" style="stroke:#c6ff24;"/>
<line x1="0" y1="350" x2="816" y2="350" style="stroke:#c6ff24;"/>
<line x1="0" y1="355" x2="816" y2="355" style="stroke:#c6ff24;"/>
<line x1="0" y1="360" x2="816" y2="360" style="stroke:#c6ff24;"/>
<line x1="0" y1="365" x2="816" y2="365" style="stroke:#c6ff24;"/>
<line x1="0" y1="370" x2="816" y2="370" style="stroke:#c6ff24;"/>
<line x1="0" y1="375" x2="816" y2="375" style="stroke:#c6ff24;"/>
<line x1="0" y1="380" x2="816" y2="380" style="stroke:#c6ff24;"/>
<line x1="0" y1="385" x2="816" y2="385" style="stroke:#c6ff24;"/>
<line x1="0" y1="390" x2="816" y2="390" style="stroke:#c6ff24;"/>
<line x1="0" y1="395" x2="816" y2="395" style="stroke:#c6ff24;"/>
<line x1="0" y1="400" x2="816" y2="400" style="stroke:#c6ff24;"/>
<line x1="0" y1="405" x2="816" y2="405" style="stroke:#c6ff24;"/>
<line x1="0" y1="410" x2="816" y2="410" style="stroke:#c6ff24;"/>
<line x1="0" y1="415" x2="816" y2="415" style="stroke:#c6ff24;"/>
<line x1="0" y1="420" x2="816" y2="420" style="stroke:#c6ff24;"/>
<line x1="0" y1="425" x2="816" y2="425" style="stroke:#c6ff24;"/>
<line x1="0" y1="430" x2="816" y2="430" style="stroke:#c6ff24;"/>
<line x1="0" y1="435" x2="816" y2="435" style="stroke:#c6ff24;"/>
<line x1="0" y1="440" x2="816" y2="440" style="stroke:#c6ff24;"/>
<line x1="0" y1="445" x2="816" y2="445" style="stroke:#c6ff24;"/>
<line x1="0" y1="450" x2="816" y2="450" style="stroke:#c6ff24;"/>
<line x1="0" y1="455" x2="816" y2="455" style="stroke:#c6ff24;"/>
<line x1="0" y1="460" x2="816" y2="460" style="stroke:#c6ff24;"/>
<line x1="0" y1="465" x2="816" y2="465" style="stroke:#c6ff24;"/>
<line x1="0" y1="470" x2="816" y2="470" style="stroke:#c6ff24;"/>
<line x1="0" y1="475" x2="816" y2="475" style="stroke:#c6ff24;"/>
<line x1="0" y1="480" x2="816" y2="480" style="stroke:#c6ff24;"/>
<line x1="0" y1="485" x2="816" y2="485" style="stroke:#c6ff24;"/>
<line x1="0" y1="490" x2="816" y2="490" style="stroke:#c6ff24;"/>
<line x1="0" y1="495" x2="816" y2="495" style="stroke:#c6ff24;"/>
<line x1="0" y1="500" x2="816" y2="500" style="stroke:#c6ff24;"/>
<line x1="0" y1="505" x2="816" y2="505" style="stroke:#c6ff24;"/>
<line x1="0" y1="510" x2="816" y2="510" style="stroke:#c6ff24;"/>
<line x1="0" y1="515" x2="816" y2="515" style="stroke:#c6ff24;"/>
<line x1="0" y1="520" x2="816" y2="520" style="stroke:#c6ff24;"/>
<line x1="0" y1="525" x2="816" y2="525" style="stroke:#c6ff24;"/>
<line x1="0" y1="530" x2="816" y2="530" style="stroke:#c6ff24;"/>
<line x1="0" y1="535" x2="816" y2="535" style="stroke:#c6ff24;"/>
<line x1="0" y1="540" x2="816" y2="540" style="stroke:#c6ff24;"/>
<line x1="0" y1="545" x2="816" y2="545" style="stroke:#c6ff24;"/>
<line x1="0" y1="550" x2="816" y2="550" style="stroke:#c6ff24;"/>
<line x1="0" y1="555" x2="816" y2="555" style="stroke:#c6ff24;"/>
<line x1="0" y1="560" x2="816" y2="560" style="stroke:#c6ff24;"/>
<line x1="0" y1="565" x2="816" y2="565" style="stroke:#c6ff24;"/>
<line x1="0" y1="570" x2="816" y2="570" style="stroke:#c6ff24;"/>
<line x1="0" y1="575" x2="816" y2="575" style="stroke:#c6ff24;"/>
<line x1="0" y1="580" x2="816" y2="580" style="stroke:#c6ff24;"/>
<line x1="0" y1="585" x2="816" y2="585" style="stroke:#c6ff24;"/>
<line x1="0" y1="590" x2="816" y2="590" style="stroke:#c6ff24;"/>
<line x1="0" y1="595" x2="816" y2="595" style="stroke:#c6ff24;"/>
<line x1="0" y1="600" x2="816" y2="600" style="stroke:#c6ff24;"/>
<line x1="0" y1="605" x2="816" y2="605" style="stroke:#c6ff24;"/>
<line x1="0" y1="610" x2="816" y2="610" style="stroke:#c6ff24;"/>
<line x1="0" y1="615" x2="816" y2="615" style="stroke:#c6ff24;"/>
<line x1="0" y1="620" x2="816" y2="620" style="stroke:#c6ff24;"/>
<line x1="0" y1="625" x2="816" y2="625" style="stroke:#c6ff24;"/>
<line x1="0" y1="630" x2="816" y2="630" style="stroke:#c6ff24;"/>
<line x1="0" y1="635" x2="816" y2="635" style="stroke:#c6ff24;"/>
<line x1="0" y1="640" x2="816" y2="640" style="stroke:#c6ff24;"/>
<line x1="0" y1="645" x2="816" y2="645" style="stroke:#c6ff24;"/>
<line x1="0" y1="650" x2="816" y2="650" style="stroke:#c6ff24;"/>
<line x1="0" y1="655" x2="816" y2="655" style="stroke:#c6ff24;"/>
<line x1="0" y1="660" x2="816" y2="660" style="stroke:#c6ff24;"/>
<line x1="0" y1="665" x2="816" y2="665" style="stroke:#c6ff24;"/>
<line x1="0" y1="670" x2="816" y2="670" style="stroke:#c6ff24;"/>
<line x1="0" y1="675" x2="816" y2="675" style="stroke:#c6ff24;"/>
<line x1="0" y1="680" x2="816" y2="680" style="stroke:#c6ff24;"/>
<line x1="0" y1="685" x2="816" y2="685" style="stroke:#c6ff24;"/>
<line x1="0" y1="690" x2="816" y2="690" style="stroke:#c6ff24;"/>
<line x1="0" y1="695" x2="816" y2="695" style="stroke:#c6ff24;"/>
<line x1="0" y1="700" x2="816" y2="700" style="stroke:#c6ff24;"/>
<line x1="0" y1="705" x2="816" y2="705" style="stroke:#c6ff24;"/>
<line x1="0" y1="710" x2="816" y2="710" style="stroke:#c6ff24;"/>
<line x1="0" y1="715" x2="816" y2="715" style="stroke:#c6ff24;"/>
<line x1="0" y1="720" x2="816" y2="720" style="stroke:#c6ff24;"/>
<line x1="0" y1="725" x2="816" y2="725" style="stroke:#c6ff24;"/>
<line x1="0" y1="730" x2="816" y2="730" style="stroke:#c6ff24;"/>
<line x1="0" y1="735" x2="816" y2="735" style="stroke:#c6ff24;"/>
<line x1="0" y1="740" x2="816" y2="740" style="stroke:#c6ff24;"/>
<line x1="0" y1="745" x2="816" y2="745" style="stroke:#c6ff24;"/>
<line x1="0" y1="750" x2="816" y2="750" style="stroke:#c6ff24;"/>
<line x1="0" y1="755" x2="816" y2="755" style="stroke:#c6ff24;"/>
<line x1="0" y1="760" x2="816" y2="760" style="stroke:#c6ff24;"/>
<line x1="0" y1="765" x2="816" y2="765" style="stroke:#c6ff24;"/>
<line x1="0" y1="770" x2="816" y2="770" style="stroke:#c6ff24;"/>
<line x1="0" y1="775" x2="816" y2="775" style="stroke:#c6ff24;"/>
<line x1="0" y1="780" x2="816" y2="780" style="stroke:#c6ff24;"/>
<line x1="0" y1="785" x2="816" y2="785" style="stroke:#c6ff24;"/>
<line x1="0" y1="790" x2="816" y2="790" style="stroke:#c6ff24;"/>
<line x1="0" y1="795" x2="816" y2="795" style="stroke:#c6ff24;"/>
<line x1="0" y1="800" x2="816" y2="800" style="stroke:#c6ff24;"/>
<line x1="0" y1="805" x2="816" y2="805" style="stroke:#c6ff24;"/>
<line x1="0" y1="810" x2="816" y2="810" style="stroke:#c6ff24;"/>
<line x1="0" y1="815" x2="816" y2="815" style="stroke:#c6ff24;"/>
<line x1="0" y1="820" x2="816" y2="820" style="stroke:#c6ff24;"/>
<line x1="0" y1="825" x2="816" y2="825" style="stroke:#c6ff24;"/>
<line x1="0" y1="830" x2="816" y2="830" style="stroke:#c6ff24;"/>
<line x1="0" y1="835" x2="816" y2="835" style="stroke:#c6ff24;"/>
<line x1="0" y1="840" x2="816" y2="840" style="stroke:#c6ff24;"/>
<line x1="0" y1="845" x2="816" y2="845" style="stroke:#c6ff24;"/>
<line x1="0" y1="850" x2="816" y2="850" style="stroke:#c6ff24;"/>
<line x1="0" y1="855" x2="816" y2="855" style="stroke:#c6ff24;"/>
<line x1="0" y1="860" x2="816" y2="860" style="stroke:#c6ff24;"/>
<line x1="0" y1="865" x2="816" y2="865" style="stroke:#c6ff24;"/>
<line x1="0" y1="870" x2="816" y2="870" style="stroke:#c6ff24;"/>
<line x1="0" y1="875" x2="816" y2="875" style="stroke:#c6ff24;"/>
<line x1="0" y1="880" x2="816" y2="880" style="stroke:#c6ff24;"/>
<line x1="0" y1="885" x2="816" y2="885" style="stroke:#c6ff24;"/>
<line x1="0" y1="890" x2="816" y2="890" style="stroke:#c6ff24;"/>
<line x1="0" y1="895" x2="816" y2="895" style="stroke:#c6ff24;"/>
<line x1="0" y1="900" x2="816" y2="900" style="stroke:#c6ff24;"/>
<line x1="0" y1="905" x2="816" y2="905" style="stroke:#c6ff24;"/>
<line x1="0" y1="910" x2="816" y2="910" style="stroke:#c6ff24;"/>
<line x1="0" y1="915" x2="816" y2="915" style="stroke:#c6ff24;"/>
<line x1="0" y1="920" x2="816" y2="920" style="stroke:#c6ff24;"/>
<line x1="0" y1="925" x2="816" y2="925" style="stroke:#c6ff24;"/>
<line x1="0" y1="930" x2="816" y2="930" style="stroke:#c6ff24;"/>
<line x1="0" y1="935" x2="816" y2="935" style="stroke:#c6ff24;"/>
<line x1="0" y1="940" x2="816" y2="940" style="stroke:#c6ff24;"/>
<line x1="0" y1="945" x2="816" y2="945" style="stroke:#c6ff24;"/>
<line x1="0" y1="950" x2="816" y2="950" style="stroke:#c6ff24;"/>
<line x1="0" y1="955" x2="816" y2="955" style="stroke:#c6ff24;"/>
<line x1="0" y1="960" x2="816" y2="960" style="stroke:#c6ff24;"/>
<line x1="0" y1="965" x2="816" y2="965" style="stroke:#c6ff24;"/>
<line x1="0" y1="970" x2="816" y2="970" style="stroke:#c6ff24;"/>
<line x1="0" y1="975" x2="816" y2="975" style="stroke:#c6ff24;"/>
<line x1="0" y1="980" x2="816" y2="980" style="stroke:#c6ff24;"/>
<line x1="0" y1="985" x2="816" y2="985" style="stroke:#c6ff24;"/>
<line x1="0" y1="990" x2="816" y2="990" style="stroke:#c6ff24;"/>
<line x1="0" y1="995" x2="816" y2="995" style="stroke:#c6ff24;"/>
<line x1="0" y1="1000" x2="816" y2="1000" style="stroke:#c6ff24;"/>
<line x1="0" y1="1005" x2="816" y2="1005" style="stroke:#c6ff24;"/>
<line x1="0" y1="1010" x2="816" y2="1010" style="stroke:#c6ff24;"/>
<line x1="0" y1="1015" x2="816" y2="1015" style="stroke:#c6ff24;"/>
<line x1="0" y1="1020" x2="816" y2="1020" style="stroke:#c6ff24;"/>
<line x1="0" y1="1025" x2="816" y2="1025" style="stroke:#c6ff24;"/>
<line x1="0" y1="1030" x2="816" y2="1030" style="stroke:#c6ff24;"/>
<line x1="0" y1="1035" x2="816" y2="1035" style="stroke:#c6ff24;"/>
<line x1="0" y1="1040" x2="816" y2="1040" style="stroke:#c6ff24;"/>
<line x1="0" y1="1045" x2="816" y2="1045" style="stroke:#c6ff24;"/>
<line x1="0" y1="1050" x2="816" y2="1050" style="stroke:#c6ff24;"/>
<line x1="0" y1="1055" x2="816" y2="1055" style="stroke:#c6ff24;"/>
</svg>